<?xml version="1.0" encoding="UTF-8" standalone="no"?>
<!-- Created with Inkscape (http://www.inkscape.org/) -->

<svg
   xmlns:dc="http://purl.org/dc/elements/1.1/"
   xmlns:cc="http://creativecommons.org/ns#"
   xmlns:rdf="http://www.w3.org/1999/02/22-rdf-syntax-ns#"
   xmlns:svg="http://www.w3.org/2000/svg"
   xmlns="http://www.w3.org/2000/svg"
   xmlns:xlink="http://www.w3.org/1999/xlink"
   xmlns:sodipodi="http://sodipodi.sourceforge.net/DTD/sodipodi-0.dtd"
   xmlns:inkscape="http://www.inkscape.org/namespaces/inkscape"
   width="744.09448819"
   height="1052.3622047"
   id="svg2"
   version="1.1"
   inkscape:version="0.48.2 r9819"
   inkscape:export-filename="/tmp/rasm2.png"
   inkscape:export-xdpi="90"
   inkscape:export-ydpi="90"
   sodipodi:docname="rasm2.svg">
  <defs
     id="defs4">
    <linearGradient
       inkscape:collect="always"
       id="linearGradient3934">
      <stop
         style="stop-color:#dc0b00;stop-opacity:1;"
         offset="0"
         id="stop3936" />
      <stop
         style="stop-color:#dc0b00;stop-opacity:0;"
         offset="1"
         id="stop3938" />
    </linearGradient>
    <linearGradient
       inkscape:collect="always"
       id="linearGradient3926">
      <stop
         style="stop-color:#aa0000;stop-opacity:1;"
         offset="0"
         id="stop3928" />
      <stop
         style="stop-color:#aa0000;stop-opacity:0;"
         offset="1"
         id="stop3930" />
    </linearGradient>
    <clipPath
       id="clipPath3018"
       clipPathUnits="userSpaceOnUse">
      <path
         inkscape:connector-curvature="0"
         id="path3020"
         d="m 0,841.89 1190.55,0 L 1190.55,0 0,0 0,841.89 z" />
    </clipPath>
    <linearGradient
       inkscape:collect="always"
       xlink:href="#linearGradient3926"
       id="linearGradient3906"
       x1="396.5"
       y1="237.36218"
       x2="146.64288"
       y2="893.36218"
       gradientUnits="userSpaceOnUse" />
    <linearGradient
       inkscape:collect="always"
       xlink:href="#linearGradient3926"
       id="linearGradient3932"
       x1="881.87018"
       y1="1070.4885"
       x2="623.16858"
       y2="360.77148"
       gradientUnits="userSpaceOnUse" />
    <linearGradient
       inkscape:collect="always"
       xlink:href="#linearGradient3934"
       id="linearGradient3940"
       x1="40"
       y1="414.52661"
       x2="635.42712"
       y2="656.35712"
       gradientUnits="userSpaceOnUse" />
  </defs>
  <sodipodi:namedview
     id="base"
     pagecolor="#ffffff"
     bordercolor="#666666"
     borderopacity="1.0"
     inkscape:pageopacity="0.0"
     inkscape:pageshadow="2"
     inkscape:zoom="0.70710678"
     inkscape:cx="517.65195"
     inkscape:cy="463.625"
     inkscape:document-units="px"
     inkscape:current-layer="layer1"
     showgrid="false"
     inkscape:window-width="1366"
     inkscape:window-height="720"
     inkscape:window-x="0"
     inkscape:window-y="0"
     inkscape:window-maximized="1" />
  <metadata
     id="metadata7">
    <rdf:RDF>
      <cc:Work
         rdf:about="">
        <dc:format>image/svg+xml</dc:format>
        <dc:type
           rdf:resource="http://purl.org/dc/dcmitype/StillImage" />
        <dc:title></dc:title>
      </cc:Work>
    </rdf:RDF>
  </metadata>
  <g
     inkscape:label="Layer 1"
     inkscape:groupmode="layer"
     id="layer1">
    <path
       transform="matrix(1,0,0,-1,47.142857,1097.5815)"
       d="m 607.14288,557.36218 a 283.57144,283.57144 0 1 1 -567.14288,0 283.57144,283.57144 0 1 1 567.14288,0 z"
       sodipodi:ry="283.57144"
       sodipodi:rx="283.57144"
       sodipodi:cy="557.36218"
       sodipodi:cx="323.57144"
       id="path3914"
       style="fill:#ffffff;fill-opacity:1;stroke:none"
       sodipodi:type="arc" />
    <path
       sodipodi:type="arc"
       style="fill:url(#linearGradient3940);fill-opacity:1;stroke:#ffffff;stroke-opacity:1;stroke-width:8;stroke-miterlimit:4;stroke-dasharray:none"
       id="path3070"
       sodipodi:cx="323.57144"
       sodipodi:cy="557.36218"
       sodipodi:rx="283.57144"
       sodipodi:ry="283.57144"
       d="m 607.14288,557.36218 a 283.57144,283.57144 0 1 1 -567.14288,0 283.57144,283.57144 0 1 1 567.14288,0 z"
       transform="matrix(1,0,0,-1,47.142857,1097.5815)" />
    <path
       style="fill:url(#linearGradient3932);fill-opacity:1;stroke:none"
       d="M 599.6875 372.9375 C 428.53042 382.80642 292.84375 521.07825 292.84375 690.21875 C 292.84375 736.23196 302.90441 779.95555 320.96875 819.4375 C 337.12496 822.29734 353.74169 823.78125 370.71875 823.78125 C 527.33093 823.78125 654.28125 696.83093 654.28125 540.21875 C 654.28125 477.6537 634.00717 419.83395 599.6875 372.9375 z "
       id="path3878" />
    <g
       transform="matrix(1.5102986,0,0,-1.5102986,76.156724,717.37153)"
       inkscape:label="radare primeros bocetos"
       id="g3012">
      <g
         transform="translate(-574.48081,-692.03162)"
         id="g4037">
        <path
           inkscape:connector-curvature="0"
           id="path3492-8"
           style="fill:#231f20;fill-opacity:1;fill-rule:nonzero;stroke:none"
           d="m 717.48563,860.61081 0,-95.251 11.881,0 0,-5.379 -82.928,0 0,5.379 15.912,0 0,51.547 c 0,9.188 0.673,17.258 -2.463,25.998 -0.673,2.241 -7.394,15.015 -10.758,9.413 0.898,-3.363 1.346,-7.172 1.346,-10.536 0,-15.013 -10.311,-24.65 -25.102,-24.65 -15.464,0 -26.221,10.757 -26.221,26.221 0,16.136 14.12,24.875 28.911,24.875 15.909,0 28.683,-8.514 36.085,-22.186 l 0.444,0 0,22.637 c 21.513,-0.673 43.254,-2.69 64.774,-2.69 l 0,-5.378 -11.881,0 z" />
        <path
           inkscape:connector-curvature="0"
           id="path3496-8"
           style="fill:#231f20;fill-opacity:1;fill-rule:nonzero;stroke:none"
           d="m 717.30203,814.96091 109.965,54.98 0,-109.96 -109.965,54.98 z" />
        <path
           inkscape:connector-curvature="0"
           id="path3500-9"
           style="fill:#231f20;fill-opacity:1;fill-rule:nonzero;stroke:none"
           d="m 827.26683,814.96091 109.959,54.98 0,-109.96 -109.959,54.98 z" />
      </g>
    </g>
    <path
       transform="matrix(1,0,0,-1,47.142857,1097.5815)"
       d="m 607.14288,557.36218 a 283.57144,283.57144 0 1 1 -567.14288,0 283.57144,283.57144 0 1 1 567.14288,0 z"
       sodipodi:ry="283.57144"
       sodipodi:rx="283.57144"
       sodipodi:cy="557.36218"
       sodipodi:cx="323.57144"
       id="path3890"
       style="fill:none;fill-opacity:1;stroke:url(#linearGradient3906);stroke-opacity:1;stroke-width:8;stroke-miterlimit:4;stroke-dasharray:none;stroke-linejoin:round;stroke-linecap:round"
       sodipodi:type="arc" />
    <text
       xml:space="preserve"
       style="font-size:40px;font-style:normal;font-weight:normal;line-height:125%;letter-spacing:0px;word-spacing:0px;fill:#ffffff;fill-opacity:1;stroke:none;font-family:Sans;opacity:0.68534483"
       x="278.45062"
       y="783.66162"
       id="text3942"
       sodipodi:linespacing="125%"><tspan
         sodipodi:role="line"
         id="tspan3944"
         x="278.45062"
         y="783.66162"
         style="font-size:72px;font-style:normal;font-variant:normal;font-weight:bold;font-stretch:normal;font-family:Sans;-inkscape-font-specification:Clean Bold">rax2</tspan></text>
  </g>
</svg>
